<?xml version="1.0" encoding="UTF-8" standalone="no"?>
<!DOCTYPE svg PUBLIC "-//W3C//DTD SVG 1.1//EN"
 "http://www.w3.org/Graphics/SVG/1.1/DTD/svg11.dtd">
<!-- Generated by graphviz version 12.2.0 (20241103.1931)
 -->
<!-- Title: G Pages: 1 -->
<svg width="1324pt" height="90pt"
 viewBox="0.00 0.00 1324.00 90.00" xmlns="http://www.w3.org/2000/svg" xmlns:xlink="http://www.w3.org/1999/xlink">
<g id="graph0" class="graph" transform="scale(1 1) rotate(0) translate(4 86)">
<title>G</title>
<polygon fill="white" stroke="none" points="-4,4 -4,-86 1320,-86 1320,4 -4,4"/>
<text text-anchor="middle" x="658" y="-7.2" font-family="Times New Roman,serif" font-size="14.00">Cola</text>
<!-- nodo0 -->
<g id="node1" class="node">
<title>nodo0</title>
<polygon fill="none" stroke="black" points="1316,-82 664.75,-82 664.75,-24.5 1316,-24.5 1316,-82"/>
<text text-anchor="middle" x="990.38" y="-64.7" font-family="Times New Roman,serif" font-size="14.00">ID: 2</text>
<text text-anchor="middle" x="990.38" y="-48.2" font-family="Times New Roman,serif" font-size="14.00">XML: C:/Users/rodri/Documents/REPOSITORIOS/pruebasipc2/ejemplo_colaPilas/Entradas/Imagenes/capibara.xml</text>
<text text-anchor="middle" x="990.38" y="-31.7" font-family="Times New Roman,serif" font-size="14.00">ID Solicitante: IPC&#45;001</text>
</g>
<!-- nodo1 -->
<g id="node2" class="node">
<title>nodo1</title>
<polygon fill="none" stroke="black" points="628.75,-82 0,-82 0,-24.5 628.75,-24.5 628.75,-82"/>
<text text-anchor="middle" x="314.38" y="-64.7" font-family="Times New Roman,serif" font-size="14.00">ID: 3</text>
<text text-anchor="middle" x="314.38" y="-48.2" font-family="Times New Roman,serif" font-size="14.00">XML: C:/Users/rodri/Documents/REPOSITORIOS/pruebasipc2/ejemplo_colaPilas/Entradas/Imagenes/rana.xml</text>
<text text-anchor="middle" x="314.38" y="-31.7" font-family="Times New Roman,serif" font-size="14.00">ID Solicitante: IPC&#45;001</text>
</g>
<!-- nodo0&#45;&gt;nodo1 -->
<g id="edge1" class="edge">
<title>nodo0&#45;&gt;nodo1</title>
<path fill="none" stroke="black" d="M664.71,-53.25C656.64,-53.25 648.56,-53.25 640.49,-53.25"/>
<polygon fill="black" stroke="black" points="640.59,-49.75 630.59,-53.25 640.59,-56.75 640.59,-49.75"/>
</g>
</g>
</svg>
