<?xml version="1.0" encoding="UTF-8" standalone="no"?>
<!DOCTYPE svg PUBLIC "-//W3C//DTD SVG 1.1//EN"
 "http://www.w3.org/Graphics/SVG/1.1/DTD/svg11.dtd">
<!-- Generated by graphviz version 12.2.0 (20241103.1931)
 -->
<!-- Title: G Pages: 1 -->
<svg width="1467pt" height="100pt"
 viewBox="0.00 0.00 1466.75 99.50" xmlns="http://www.w3.org/2000/svg" xmlns:xlink="http://www.w3.org/1999/xlink">
<g id="graph0" class="graph" transform="scale(1 1) rotate(0) translate(4 95.5)">
<title>G</title>
<polygon fill="white" stroke="none" points="-4,4 -4,-95.5 1462.75,-95.5 1462.75,4 -4,4"/>
<!-- nodo1 -->
<g id="node1" class="node">
<title>nodo1</title>
<polygon fill="none" stroke="black" points="0,-0.5 0,-91 211.5,-91 211.5,-0.5 0,-0.5"/>
<text text-anchor="middle" x="9.88" y="-40.7" font-family="Times New Roman,serif" font-size="14.00"> </text>
<polyline fill="none" stroke="black" points="19.75,-0.5 19.75,-91"/>
<text text-anchor="middle" x="105.75" y="-73.7" font-family="Times New Roman,serif" font-size="14.00">ID: LIB01</text>
<text text-anchor="middle" x="105.75" y="-57.2" font-family="Times New Roman,serif" font-size="14.00">Título: El Quijote</text>
<text text-anchor="middle" x="105.75" y="-40.7" font-family="Times New Roman,serif" font-size="14.00">Autor: Miguel de Cervantes</text>
<text text-anchor="middle" x="105.75" y="-24.2" font-family="Times New Roman,serif" font-size="14.00">Precio: 20</text>
<text text-anchor="middle" x="105.75" y="-7.7" font-family="Times New Roman,serif" font-size="14.00">Imagen: ../images/libro1.jpg</text>
<polyline fill="none" stroke="black" points="191.75,-0.5 191.75,-91"/>
<text text-anchor="middle" x="201.62" y="-40.7" font-family="Times New Roman,serif" font-size="14.00"> </text>
</g>
<!-- nodo2 -->
<g id="node2" class="node">
<title>nodo2</title>
<polygon fill="none" stroke="black" points="247.5,-0.5 247.5,-91 459,-91 459,-0.5 247.5,-0.5"/>
<text text-anchor="middle" x="257.38" y="-40.7" font-family="Times New Roman,serif" font-size="14.00"> </text>
<polyline fill="none" stroke="black" points="267.25,-0.5 267.25,-91"/>
<text text-anchor="middle" x="353.25" y="-73.7" font-family="Times New Roman,serif" font-size="14.00">ID: LIB02</text>
<text text-anchor="middle" x="353.25" y="-57.2" font-family="Times New Roman,serif" font-size="14.00">Título: La Celestina</text>
<text text-anchor="middle" x="353.25" y="-40.7" font-family="Times New Roman,serif" font-size="14.00">Autor: Fernando de Rojas</text>
<text text-anchor="middle" x="353.25" y="-24.2" font-family="Times New Roman,serif" font-size="14.00">Precio: 15</text>
<text text-anchor="middle" x="353.25" y="-7.7" font-family="Times New Roman,serif" font-size="14.00">Imagen: ../images/libro2.jpg</text>
<polyline fill="none" stroke="black" points="439.25,-0.5 439.25,-91"/>
<text text-anchor="middle" x="449.12" y="-40.7" font-family="Times New Roman,serif" font-size="14.00"> </text>
</g>
<!-- nodo1&#45;&gt;nodo2 -->
<g id="edge1" class="edge">
<title>nodo1:f2&#45;&gt;nodo2:f1</title>
<path fill="none" stroke="black" d="M211.5,-45.75C222.88,-45.75 228.18,-45.75 236.05,-45.75"/>
<polygon fill="black" stroke="black" points="235.99,-49.25 245.99,-45.75 235.99,-42.25 235.99,-49.25"/>
</g>
<!-- nodo2&#45;&gt;nodo1 -->
<g id="edge2" class="edge">
<title>nodo2:f1&#45;&gt;nodo1:f2</title>
<path fill="none" stroke="black" d="M247.5,-45.75C236.12,-45.75 230.82,-45.75 222.95,-45.75"/>
<polygon fill="black" stroke="black" points="223.01,-42.25 213.01,-45.75 223.01,-49.25 223.01,-42.25"/>
</g>
<!-- nodo3 -->
<g id="node3" class="node">
<title>nodo3</title>
<polygon fill="none" stroke="black" points="495,-0.5 495,-91 706.5,-91 706.5,-0.5 495,-0.5"/>
<text text-anchor="middle" x="504.88" y="-40.7" font-family="Times New Roman,serif" font-size="14.00"> </text>
<polyline fill="none" stroke="black" points="514.75,-0.5 514.75,-91"/>
<text text-anchor="middle" x="600.75" y="-73.7" font-family="Times New Roman,serif" font-size="14.00">ID: LIB03</text>
<text text-anchor="middle" x="600.75" y="-57.2" font-family="Times New Roman,serif" font-size="14.00">Título: La Regenta</text>
<text text-anchor="middle" x="600.75" y="-40.7" font-family="Times New Roman,serif" font-size="14.00">Autor: Leopoldo Alas Clarín</text>
<text text-anchor="middle" x="600.75" y="-24.2" font-family="Times New Roman,serif" font-size="14.00">Precio: 25</text>
<text text-anchor="middle" x="600.75" y="-7.7" font-family="Times New Roman,serif" font-size="14.00">Imagen: ../images/libro3.jpg</text>
<polyline fill="none" stroke="black" points="686.75,-0.5 686.75,-91"/>
<text text-anchor="middle" x="696.62" y="-40.7" font-family="Times New Roman,serif" font-size="14.00"> </text>
</g>
<!-- nodo2&#45;&gt;nodo3 -->
<g id="edge3" class="edge">
<title>nodo2:f2&#45;&gt;nodo3:f1</title>
<path fill="none" stroke="black" d="M459,-45.75C470.38,-45.75 475.68,-45.75 483.55,-45.75"/>
<polygon fill="black" stroke="black" points="483.49,-49.25 493.49,-45.75 483.49,-42.25 483.49,-49.25"/>
</g>
<!-- nodo3&#45;&gt;nodo2 -->
<g id="edge4" class="edge">
<title>nodo3:f1&#45;&gt;nodo2:f2</title>
<path fill="none" stroke="black" d="M495,-45.75C483.62,-45.75 478.32,-45.75 470.45,-45.75"/>
<polygon fill="black" stroke="black" points="470.51,-42.25 460.51,-45.75 470.51,-49.25 470.51,-42.25"/>
</g>
<!-- nodo4 -->
<g id="node4" class="node">
<title>nodo4</title>
<polygon fill="none" stroke="black" points="742.5,-0.5 742.5,-91 954,-91 954,-0.5 742.5,-0.5"/>
<text text-anchor="middle" x="752.38" y="-40.7" font-family="Times New Roman,serif" font-size="14.00"> </text>
<polyline fill="none" stroke="black" points="762.25,-0.5 762.25,-91"/>
<text text-anchor="middle" x="848.25" y="-73.7" font-family="Times New Roman,serif" font-size="14.00">ID: LIB04</text>
<text text-anchor="middle" x="848.25" y="-57.2" font-family="Times New Roman,serif" font-size="14.00">Título: La Colmena</text>
<text text-anchor="middle" x="848.25" y="-40.7" font-family="Times New Roman,serif" font-size="14.00">Autor: Camilo José Cela</text>
<text text-anchor="middle" x="848.25" y="-24.2" font-family="Times New Roman,serif" font-size="14.00">Precio: 30</text>
<text text-anchor="middle" x="848.25" y="-7.7" font-family="Times New Roman,serif" font-size="14.00">Imagen: ../images/libro4.jpg</text>
<polyline fill="none" stroke="black" points="934.25,-0.5 934.25,-91"/>
<text text-anchor="middle" x="944.12" y="-40.7" font-family="Times New Roman,serif" font-size="14.00"> </text>
</g>
<!-- nodo3&#45;&gt;nodo4 -->
<g id="edge5" class="edge">
<title>nodo3:f2&#45;&gt;nodo4:f1</title>
<path fill="none" stroke="black" d="M706.5,-45.75C717.88,-45.75 723.18,-45.75 731.05,-45.75"/>
<polygon fill="black" stroke="black" points="730.99,-49.25 740.99,-45.75 730.99,-42.25 730.99,-49.25"/>
</g>
<!-- nodo4&#45;&gt;nodo3 -->
<g id="edge6" class="edge">
<title>nodo4:f1&#45;&gt;nodo3:f2</title>
<path fill="none" stroke="black" d="M742.5,-45.75C731.12,-45.75 725.82,-45.75 717.95,-45.75"/>
<polygon fill="black" stroke="black" points="718.01,-42.25 708.01,-45.75 718.01,-49.25 718.01,-42.25"/>
</g>
<!-- nodo5 -->
<g id="node5" class="node">
<title>nodo5</title>
<polygon fill="none" stroke="black" points="990,-0.5 990,-91 1211.25,-91 1211.25,-0.5 990,-0.5"/>
<text text-anchor="middle" x="999.88" y="-40.7" font-family="Times New Roman,serif" font-size="14.00"> </text>
<polyline fill="none" stroke="black" points="1009.75,-0.5 1009.75,-91"/>
<text text-anchor="middle" x="1100.62" y="-73.7" font-family="Times New Roman,serif" font-size="14.00">ID: LIB05</text>
<text text-anchor="middle" x="1100.62" y="-57.2" font-family="Times New Roman,serif" font-size="14.00">Título: El Lazarillo de Tormes</text>
<text text-anchor="middle" x="1100.62" y="-40.7" font-family="Times New Roman,serif" font-size="14.00">Autor: Anónimo</text>
<text text-anchor="middle" x="1100.62" y="-24.2" font-family="Times New Roman,serif" font-size="14.00">Precio: 10</text>
<text text-anchor="middle" x="1100.62" y="-7.7" font-family="Times New Roman,serif" font-size="14.00">Imagen: ../images/libro5.jpg</text>
<polyline fill="none" stroke="black" points="1191.5,-0.5 1191.5,-91"/>
<text text-anchor="middle" x="1201.38" y="-40.7" font-family="Times New Roman,serif" font-size="14.00"> </text>
</g>
<!-- nodo4&#45;&gt;nodo5 -->
<g id="edge7" class="edge">
<title>nodo4:f2&#45;&gt;nodo5:f1</title>
<path fill="none" stroke="black" d="M954,-45.75C965.38,-45.75 970.68,-45.75 978.55,-45.75"/>
<polygon fill="black" stroke="black" points="978.49,-49.25 988.49,-45.75 978.49,-42.25 978.49,-49.25"/>
</g>
<!-- nodo5&#45;&gt;nodo4 -->
<g id="edge8" class="edge">
<title>nodo5:f1&#45;&gt;nodo4:f2</title>
<path fill="none" stroke="black" d="M990,-45.75C978.62,-45.75 973.32,-45.75 965.45,-45.75"/>
<polygon fill="black" stroke="black" points="965.51,-42.25 955.51,-45.75 965.51,-49.25 965.51,-42.25"/>
</g>
<!-- nodo6 -->
<g id="node6" class="node">
<title>nodo6</title>
<polygon fill="none" stroke="black" points="1247.25,-0.5 1247.25,-91 1458.75,-91 1458.75,-0.5 1247.25,-0.5"/>
<text text-anchor="middle" x="1257.12" y="-40.7" font-family="Times New Roman,serif" font-size="14.00"> </text>
<polyline fill="none" stroke="black" points="1267,-0.5 1267,-91"/>
<text text-anchor="middle" x="1353" y="-73.7" font-family="Times New Roman,serif" font-size="14.00">ID: LIB06</text>
<text text-anchor="middle" x="1353" y="-57.2" font-family="Times New Roman,serif" font-size="14.00">Título: Don Juan Tenorio</text>
<text text-anchor="middle" x="1353" y="-40.7" font-family="Times New Roman,serif" font-size="14.00">Autor: José Zorrilla</text>
<text text-anchor="middle" x="1353" y="-24.2" font-family="Times New Roman,serif" font-size="14.00">Precio: 20</text>
<text text-anchor="middle" x="1353" y="-7.7" font-family="Times New Roman,serif" font-size="14.00">Imagen: ../images/libro6.jpg</text>
<polyline fill="none" stroke="black" points="1439,-0.5 1439,-91"/>
<text text-anchor="middle" x="1448.88" y="-40.7" font-family="Times New Roman,serif" font-size="14.00"> </text>
</g>
<!-- nodo5&#45;&gt;nodo6 -->
<g id="edge9" class="edge">
<title>nodo5:f2&#45;&gt;nodo6:f1</title>
<path fill="none" stroke="black" d="M1211.25,-45.75C1222.62,-45.75 1227.93,-45.75 1235.8,-45.75"/>
<polygon fill="black" stroke="black" points="1235.74,-49.25 1245.74,-45.75 1235.74,-42.25 1235.74,-49.25"/>
</g>
<!-- nodo6&#45;&gt;nodo5 -->
<g id="edge10" class="edge">
<title>nodo6:f1&#45;&gt;nodo5:f2</title>
<path fill="none" stroke="black" d="M1247.25,-45.75C1235.88,-45.75 1230.57,-45.75 1222.7,-45.75"/>
<polygon fill="black" stroke="black" points="1222.76,-42.25 1212.76,-45.75 1222.76,-49.25 1222.76,-42.25"/>
</g>
</g>
</svg>
