<?xml version="1.0" encoding="UTF-8" standalone="no"?>
<!DOCTYPE svg PUBLIC "-//W3C//DTD SVG 1.1//EN"
 "http://www.w3.org/Graphics/SVG/1.1/DTD/svg11.dtd">
<!-- Generated by graphviz version 12.2.0 (20241103.1931)
 -->
<!-- Title: G Pages: 1 -->
<svg width="242pt" height="69pt"
 viewBox="0.00 0.00 242.00 68.50" xmlns="http://www.w3.org/2000/svg" xmlns:xlink="http://www.w3.org/1999/xlink">
<g id="graph0" class="graph" transform="scale(1 1) rotate(0) translate(4 64.5)">
<title>G</title>
<polygon fill="white" stroke="none" points="-4,4 -4,-64.5 238,-64.5 238,4 -4,4"/>
<text text-anchor="middle" x="117" y="-7.2" font-family="Times New Roman,serif" font-size="14.00">Cola</text>
<!-- nodo0 -->
<g id="node1" class="node">
<title>nodo0</title>
<polygon fill="none" stroke="black" points="234,-60.5 180,-60.5 180,-24.5 234,-24.5 234,-60.5"/>
<text text-anchor="middle" x="207" y="-37.45" font-family="Times New Roman,serif" font-size="14.00">2</text>
</g>
<!-- nodo1 -->
<g id="node2" class="node">
<title>nodo1</title>
<polygon fill="none" stroke="black" points="144,-60.5 90,-60.5 90,-24.5 144,-24.5 144,-60.5"/>
<text text-anchor="middle" x="117" y="-37.45" font-family="Times New Roman,serif" font-size="14.00">3</text>
</g>
<!-- nodo0&#45;&gt;nodo1 -->
<g id="edge1" class="edge">
<title>nodo0&#45;&gt;nodo1</title>
<path fill="none" stroke="black" d="M179.6,-42.5C172.11,-42.5 163.82,-42.5 155.8,-42.5"/>
<polygon fill="black" stroke="black" points="155.9,-39 145.9,-42.5 155.9,-46 155.9,-39"/>
</g>
<!-- nodo2 -->
<g id="node3" class="node">
<title>nodo2</title>
<polygon fill="none" stroke="black" points="54,-60.5 0,-60.5 0,-24.5 54,-24.5 54,-60.5"/>
<text text-anchor="middle" x="27" y="-37.45" font-family="Times New Roman,serif" font-size="14.00">4</text>
</g>
<!-- nodo1&#45;&gt;nodo2 -->
<g id="edge2" class="edge">
<title>nodo1&#45;&gt;nodo2</title>
<path fill="none" stroke="black" d="M89.6,-42.5C82.11,-42.5 73.82,-42.5 65.8,-42.5"/>
<polygon fill="black" stroke="black" points="65.9,-39 55.9,-42.5 65.9,-46 65.9,-39"/>
</g>
</g>
</svg>
